<?xml version="1.0" encoding="UTF-8" standalone="no"?>
<svg
   xmlns:dc="http://purl.org/dc/elements/1.1/"
   xmlns:cc="http://creativecommons.org/ns#"
   xmlns:rdf="http://www.w3.org/1999/02/22-rdf-syntax-ns#"
   xmlns:svg="http://www.w3.org/2000/svg"
   xmlns="http://www.w3.org/2000/svg"
   viewBox="0 0 64 64"
   version="1.1"
   id="svg3603"
   height="64"
   width="64">
  <defs
     id="defs3605" />
  <metadata
     id="metadata3608">
    <rdf:RDF>
      <cc:Work
         rdf:about="">
        <dc:format>image/svg+xml</dc:format>
        <dc:type
           rdf:resource="http://purl.org/dc/dcmitype/StillImage" />
        <dc:title></dc:title>
      </cc:Work>
    </rdf:RDF>
  </metadata>
  <g
     id="layer1">
    <g
       transform="matrix(0.03095426,0,0,0.03095426,0.484658,0.48465736)"
       id="g3370">
      <g
         id="Layer_x0020_1">
        <g
           id="_246120152">
          <path
             style="fill:#fbffbe"
             class="fil0"
             d="m 1792,1024 c 0,204.364 -80.4721,398.559 -224.955,543.039 -144.483,144.481 -338.68,224.951 -543.044,224.951 -204.364,0 -398.561,-80.4697 -543.044,-224.951 C 336.474,1422.558 256.002,1228.364 256.002,1024 c 0,-204.365 80.4697,-398.562 224.954,-543.045 144.483,-144.484 338.68,-224.954 543.045,-224.954 204.366,0 398.564,80.4686 543.048,224.953 144.484,144.483 224.952,338.68 224.952,543.046 z m -270.206,497.787 C 1654.256,1389.326 1728,1211.361 1728,1024 1728,836.637 1654.2614,658.668 1521.797,526.204 1389.332,393.741 1211.363,320 1024,320 836.637,320 658.669,393.7422 526.205,526.205 393.742,658.669 320,836.637 320,1024 c 0,187.361 73.7445,365.326 206.206,497.787 132.464,132.462 310.432,206.204 497.794,206.204 187.362,0 365.329,-73.7422 497.794,-206.204 z"
             id="_246121376" />
          <path
             style="fill:#212121;fill-rule:nonzero"
             class="fil1"
             d="m 1438.64,1177.41 c 0,-0.031 0,-0.017 -0.011,0 l 0.011,0 z"
             id="_246121136" />
          <path
             style="fill:#212121;fill-rule:nonzero"
             class="fil1"
             d="m 1499.8,976.878 c 0.031,-0.15591 -0.024,-0.0484 -0.111,0.10748 l 0.111,-0.10748 z"
             id="_246121088" />
          <path
             style="fill:#fbffbe"
             class="fil0"
             d="m 1105.19,991.642 0,0 z m -68.0127,-376.128 c -8.087,-10.1398 -18.0284,-19.9654 -29.889,-29.4083 -13.2921,-10.5815 -29.0008,-20.7591 -47.2241,-30.4429 -35.0693,-18.6236 -74.4827,-31.6099 -115.265,-38.0457 -39.7772,-6.27874 -80.8335,-6.2563 -120.389,0.91654 l 1.3748,31.5626 c 1.80354,0.16417 7.70434,3.9 14.3587,8.32087 -20.6776,5.93977 -39.7677,14.4461 -39.4807,39.6815 l 0.20079,17.4827 17.2996,-1.73268 c 29.3823,-2.94095 60.1678,-2.0504 90.3225,2.61732 9.21024,1.42559 18.3591,3.20197 27.3862,5.32441 l -4.32402,1.15276 c -20.4484,5.58426 -38.9292,12.5209 -54.2493,20.6103 -46.2792,24.3189 -75.5127,60.8493 -90.1406,108.371 -14.1461,45.9555 -14.2748,101.815 -2.72835,166.512 l 0.0626,0.0626 c 15.1453,84.57408 64.1575,316.39198 104.117,505.39398 19.7858,93.5894 37.3866,176.831 47.1414,224.407 3.26575,15.8445 5.03622,31.0264 5.52048,45.5197 0.30354,9.0792 0.0921,17.9599 -0.58111,26.6268 -0.45118,5.8028 -1.10906,11.511 -1.95709,17.1189 l 31.6252,4.7504 c 0.70867,-4.7043 1.29803,-9.4937 1.76221,-14.3728 48.9638,10.5154 99.7761,16.0512 151.87999,16.0512 60.6792,0 119.607,-7.5083 175.904,-21.6449 3.0414,6.0827 6.0803,12.1925 9.1075,18.3225 l 28.6252,-14.126 c -2.1083,-4.2685 -4.2331,-8.5488 -6.3709,-12.8362 -23.002,-46.1233 -47.4957,-93.0083 -68.6682,-133.534 -15.3921,-29.4626 -29.0091,-55.526 -39.0449,-75.5764 -26.824,-53.6174 -53.6351,-119.469 -68.2808,-182.367 -8.7791,-37.7044 -13.1256,-74.0977 -10.3051,-105.626 -15.3106,-6.2787 -26.6894,-11.8016 -31.9642,-15.5906 l -0.01,0.015 c -14.21932,-10.1988 -31.11142,-28.1185 -41.82172,-49.7174 -8.61615,-17.3764 -13.3973,-37.2461 -10.1445,-57.841 3.17126,-19.8402 27.3343,-46.7138 57.84342,-67.4575 l 0,-0.065 c 26.5536,-18.0532 58.7516,-32.50508 86.3186,-34.31338 7.8354,-0.50906 16.3122,-1.00512 23.9918,-1.45158 33.4488,-1.95 50.2418,-2.93032 84.4737,-11.4213 10.8803,-2.69055 26.1886,-6.5563 43.5284,-11.0835 2.3646,-40.7008 -5.9469,-87.5965 -21.0402,-133.234 -22.0028,-66.5339 -58.6819,-131.254 -97.6265,-170.211 -12.548,-12.5528 -28.1693,-22.7894 -45.9048,-30.9378 -16.878,-7.75394 -35.641,-13.6158 -55.4351,-17.7827 z m -10.6583,178.553 c 0,0 6.7748,-42.4855 58.3914,-33.9768 27.9662,4.65355 37.8981,29.8323 37.8981,29.8323 0,0 -25.3051,-14.4591 -44.9433,-14.198 -40.3276,0.5315 -51.3461,18.3425 -51.3461,18.3425 z M 786.075,775.265 c 48.4961,-19.8532 72.1087,11.2984 72.1087,11.2984 0,0 -35.2087,-15.9284 -69.4548,5.59016 -34.187,21.476 -32.9138,43.4516 -32.9138,43.4516 0,0 -18.1713,-40.5 30.2599,-60.3402 z m 296.499,95.3989 c 0,-6.6756 2.6847,-12.6933 7.0134,-17.0197 4.3701,-4.36772 10.4232,-7.07363 17.1036,-7.07363 6.7287,0 12.7902,2.69646 17.152,7.05001 4.3358,4.32874 7.0157,10.3547 7.0157,17.0433 0,6.73819 -2.7,12.8114 -7.0677,17.1815 -4.3299,4.33111 -10.3713,7.01103 -17.1,7.01103 -6.6803,0 -12.7134,-2.68819 -17.0516,-7.03465 -4.3606,-4.3689 -7.0653,-10.4327 -7.0653,-17.1579 z m -268.418,51.2705 c 0,-8.53465 3.41103,-16.2189 8.93268,-21.737 5.55237,-5.55 13.2579,-8.98229 21.8103,-8.98229 8.51575,0 16.1882,3.41457 21.704,8.93387 5.55119,5.55473 8.98701,13.2567 8.98701,21.7854 0,8.53583 -3.43347,16.2366 -8.98229,21.7878 -5.51575,5.5193 -13.1906,8.9315 -21.7087,8.9315 -8.55237,0 -16.2614,-3.43111 -21.815,-8.98229 -5.51811,-5.51457 -8.92796,-13.1953 -8.92796,-21.737 z"
             id="_246120296" />
          <path
             style="fill:#fbffbe"
             class="fil0"
             d="m 1102.48,986.339 0,0 z m 390.074,-64.3465 c -28.917,-11.341 -74.8914,-12.6791 -93.319,-3.77717 -11.5016,5.56654 -35.7437,13.4823 -63.5658,21.7063 -25.741,7.60631 -53.8937,15.2965 -78.1477,21.7028 -17.6882,4.67008 -33.3024,8.65867 -44.4012,11.4343 -34.9181,8.76024 -52.0477,9.77127 -86.1674,11.7827 -7.8331,0.46063 -16.4799,0.97205 -24.4725,1.49764 -28.1197,1.86614 -60.9638,16.77523 -88.0501,35.40003 l 0,0.067 c -31.1209,21.4004 -55.7682,49.1244 -59.0032,69.593 -3.31772,21.248 1.55906,41.7461 10.3488,59.6729 10.924,22.2827 28.1551,40.7705 42.6603,51.2918 l 0.01,-0.015 c 5.38,3.9083 16.9866,9.6059 32.6044,16.0843 26.0327,10.7976 63.2032,23.765 101.25,34.2331 43.6063,11.9976 89.1178,21.0532 121.689,20.4106 34.2626,-0.6909 77.7331,-10.5165 114.543,-24.6721 22.1469,-8.5169 42.2091,-18.7063 56.8796,-29.5748 17.8477,-13.2189 28.6996,-28.4173 28.3984,-44.7378 -0.068,-3.8846 -0.7145,-7.6299 -1.9689,-11.2087 l -0.021,0.01 c -11.5961,-33.0567 -50.3658,-23.5878 -105.528,-10.1114 -46.8579,11.4461 -107.937,26.3658 -169.011,20.4343 -32.5559,-3.1654 -54.4441,-10.611 -67.8756,-20.1319 -5.9622,-4.2248 -9.9319,-8.6681 -12.1807,-13.1091 -1.9583,-3.8669 -2.674,-7.8425 -2.3303,-11.7154 0.3897,-4.4197 2.1779,-9.0484 5.1012,-13.5721 l -0.044,-0.031 c 7.8614,-12.1169 23.0835,-9.7205 43.9276,-6.4335 25.9099,4.0843 58.2012,9.176 99.0178,-3.6082 39.6296,-12.3756 87.7607,-29.8984 131.186,-47.3882 42.4052,-17.0799 80.0788,-34.0772 100.741,-46.1811 25.461,-14.87134 37.5709,-29.42604 40.5874,-42.86464 2.7259,-12.1536 -0.8894,-22.4823 -8.902,-31.0689 -5.8713,-6.2941 -14.2547,-11.3126 -23.9563,-15.1181 z"
             id="_246120848" />
        </g>
      </g>
      <rect
         style="fill:none"
         y="0"
         x="0"
         class="fil2"
         height="2048"
         width="2048"
         id="rect3363" />
    </g>
  </g>
</svg>
