<?xml version="1.0" encoding="UTF-8" standalone="no"?>
<svg
   xmlns:dc="http://purl.org/dc/elements/1.1/"
   xmlns:cc="http://creativecommons.org/ns#"
   xmlns:rdf="http://www.w3.org/1999/02/22-rdf-syntax-ns#"
   xmlns:svg="http://www.w3.org/2000/svg"
   xmlns="http://www.w3.org/2000/svg"
   viewBox="0 0 64 64"
   version="1.1"
   id="svg3603"
   height="64"
   width="64">
  <defs
     id="defs3605" />
  <metadata
     id="metadata3608">
    <rdf:RDF>
      <cc:Work
         rdf:about="">
        <dc:format>image/svg+xml</dc:format>
        <dc:type
           rdf:resource="http://purl.org/dc/dcmitype/StillImage" />
        <dc:title></dc:title>
      </cc:Work>
    </rdf:RDF>
  </metadata>
  <g
     id="layer1">
    <g
       transform="matrix(0.12902981,0,0,0.12902981,-1.2046552,-1.1040662)"
       id="g3813"
       style="fill:#fbffbe">
      <path
         class="st0"
         d="m 491.4,210.1 c -76.8,0 -153.6,0 -230.5,0 0,31.9 0,63.7 0,95.6 44.5,0 89,0 133.5,0 -5.2,30.5 -23.3,58.5 -49,75.6 -16.2,10.9 -34.8,17.9 -53.9,21.3 -19.3,3.3 -39.2,3.7 -58.4,-0.2 -19.6,-3.9 -38.2,-12.1 -54.5,-23.5 -26,-18.3 -45.9,-45.1 -56.1,-75.2 -10.4,-30.6 -10.5,-64.8 0,-95.4 7.3,-21.6 19.5,-41.5 35.5,-57.7 19.8,-20.2 45.5,-34.7 73.1,-40.6 23.7,-5.1 48.7,-4.1 71.9,2.9 19.7,6 37.9,16.8 52.8,31 15.1,-15 30,-30 45.1,-45 7.9,-8.1 16.2,-15.8 23.8,-24.1 C 401.9,53.7 375.1,36.7 345.9,26 293.3,6.6 233.9,6.2 180.9,24.6 121.1,45 70.3,89.6 42.1,146.1 32.3,165.5 25.1,186.3 20.8,207.7 10,260.8 17.5,317.5 42.1,366 c 15.9,31.6 38.8,59.7 66.5,81.8 26.2,20.9 56.7,36.3 89,44.9 40.8,10.9 84.2,10.7 125.3,1.3 37.1,-8.5 72.2,-26.3 100.3,-52.2 29.6,-27.2 50.8,-63.1 62,-101.7 12.1,-42 13.8,-86.9 6.2,-130 z"
         id="path3805" />
    </g>
  </g>
</svg>
