<?xml version="1.0" encoding="UTF-8" standalone="no"?>
<svg
   xmlns:dc="http://purl.org/dc/elements/1.1/"
   xmlns:cc="http://creativecommons.org/ns#"
   xmlns:rdf="http://www.w3.org/1999/02/22-rdf-syntax-ns#"
   xmlns:svg="http://www.w3.org/2000/svg"
   xmlns="http://www.w3.org/2000/svg"
   viewBox="0 0 64 64"
   version="1.1"
   id="svg3603"
   height="64"
   width="64">
  <defs
     id="defs3605" />
  <metadata
     id="metadata3608">
    <rdf:RDF>
      <cc:Work
         rdf:about="">
        <dc:format>image/svg+xml</dc:format>
        <dc:type
           rdf:resource="http://purl.org/dc/dcmitype/StillImage" />
        <dc:title></dc:title>
      </cc:Work>
    </rdf:RDF>
  </metadata>
  <g
     id="layer1">
    <g
       transform="matrix(3.9355024,0,0,3.9355024,0.42365591,-0.62327216)"
       id="g3347"
       style="clip-rule:evenodd;fill:#fbffbe;fill-rule:evenodd;stroke-linejoin:round;stroke-miterlimit:1.41400003">
      <path
         d="m 0,7.345 c 0,-1.294 0.16,-2.59 0.16,-2.59 0,0 0.156,-1.1 0.636,-1.587 C 1.404,2.531 2.204,2.551 2.56,2.484 3.84,2.36 8,2.324 8,2.324 c 0,0 3.362,0.004 5.6,0.166 0.314,0.038 0.996,0.04 1.604,0.678 0.48,0.486 0.636,1.588 0.636,1.588 0,0 0.16,1.294 0.16,2.59 l 0,1.258 c 0,1.296 -0.16,2.59 -0.16,2.59 0,0 -0.156,1.102 -0.636,1.588 -0.608,0.638 -1.29,0.64 -1.604,0.678 -2.238,0.162 -5.6,0.166 -5.6,0.166 0,0 -4.16,-0.037 -5.44,-0.16 C 2.204,13.399 1.404,13.419 0.796,12.782 0.316,12.295 0.16,11.195 0.16,11.195 0.16,11.195 0,9.9 0,8.605 l 0,-1.26 z m 6.348,2.73 0,-4.495 4.323,2.255 -4.32,2.24 -0.002,0 z"
         id="path3339" />
    </g>
  </g>
</svg>
